<svg width="200" height="200" viewBox="0 0 200 200" fill="none" xmlns="http://www.w3.org/2000/svg">
<circle cx="100" cy="100" r="96" stroke="#2F80ED" stroke-width="8"/>
<path d="M161.197 89.6443C160.105 82.6743 153.363 77.3063 145.168 76.8799C139.967 76.6096 134.963 78.3443 131.436 81.6391C131.348 81.7203 131.222 81.84 131.06 81.9961C128.418 84.5205 126.039 86.5627 123.919 88.2177C117.136 76.0799 120.028 61.3709 123.933 50.7072L126.389 44L118.804 46.6695C118.145 46.902 102.561 52.4915 94.6761 64.3459C91.9246 68.4812 89.6769 74.2846 89.326 80.714C92.0231 82.5251 94.8435 83.9991 97.7665 85.1169C106.499 88.4571 113.548 87.5326 113.619 87.523L113.565 87.5305L114.954 94.0259C114.584 94.0837 105.766 95.4043 94.6385 91.1493C88.2542 88.7088 82.3394 84.8995 77.0598 79.8301C70.384 73.42 64.6966 64.9595 60.1548 54.683L57.4769 48.6251L53.6912 54.37C53.362 54.8708 47.1668 64.4181 46.0277 76.3152C45.7514 79.3341 45.8034 82.5003 46.3618 85.7071C47.2197 90.6327 49.336 95.7139 52.4785 100.403C56.0014 105.657 60.7507 110.243 66.2114 113.663C74.3627 118.769 83.9591 121.356 94.7346 121.356C97.9411 121.356 101.264 121.118 104.609 120.648L105.85 127.166C102.096 127.693 98.3561 127.96 94.7346 127.96C86.5424 127.96 78.7227 126.575 71.6424 123.908C70.7484 124.533 69.9402 125.097 69.2545 125.576L38.7159 132.254L38.2898 134.355C38.2153 134.719 36.5459 143.327 42.1403 149.834C45.3404 153.557 50.133 155.793 56.3827 156.483L58.3372 156.697L77.7086 138.917C81.9357 140.796 86.8444 142.088 94.5952 142.474C95.486 142.518 96.3695 142.541 97.2514 142.541C121.233 142.539 141.468 126.318 142.947 105.385L143.171 102.228C143.502 97.5663 149.406 92.7341 154.468 92.9989C155.118 93.0326 155.763 93.1228 156.385 93.2665L161.967 94.5569L161.197 89.6443Z" fill="#2F80ED"/>
</svg>
